<svg id="Layer_1" enable-background="new 0 0 48 48" height="512" viewBox="0 0 48 48" width="512" xmlns="http://www.w3.org/2000/svg"><path d="m16.711 40-5.922 7.614c-.189.243-.48.386-.789.386s-.6-.143-.79-.386l-5.921-7.614h2.534l4.177 5.371 4.177-5.371zm25.466 0-4.177 5.371-4.177-5.371h-2.534l5.922 7.614c.189.243.48.386.789.386s.6-.143.79-.386l5.921-7.614zm4.823-3v-2c0-.552-.448-1-1-1h-44c-.552 0-1 .448-1 1v2c0 .552.448 1 1 1h44c.552 0 1-.448 1-1zm-19.344-22.27c-1.105 0-2.105.448-2.828 1.172-.724.724-1.172 1.724-1.172 2.828 0 2.209 1.791 4 4 4s4-1.791 4-4-1.79-4-4-4zm-2.324.555c-.145.218-.312.425-.504.617-1.562 1.562-4.095 1.562-5.657 0l-7.071-7.071c-1.562-1.562-1.562-4.095 0-5.657.781-.781 1.804-1.174 2.827-1.174h12.067l-2.673 4h-3.738l3.683 3.683 1.23-1.841 3.309-4.953c.37-.553.988-.886 1.64-.889.418.004.811.121 1.135.338.917.612 1.164 1.857.551 2.773l-1.932 2.891zm12.668-11.285c0 1.105-.895 2-2 2h-2.087c.737-1.27.7-2.791.002-4h2.085c1.105 0 2 .895 2 2z"/></svg>