<svg id="Capa_1" enable-background="new 0 0 512.003 512.003" height="512" viewBox="0 0 512.003 512.003" width="512" xmlns="http://www.w3.org/2000/svg"><g><path d="m297.173 108.131-136-105c-5.39-4.16-12.9-4.17-18.29-.04l-137 105c-5.11 3.91-7.15 10.64-5.09 16.73 2.07 6.08 7.78 10.18 14.21 10.18h273c6.42 0 12.12-4.08 14.2-10.16 2.07-6.07.05-12.79-5.03-16.71z"/><path d="m288.003 369.001h-273c-8.284 0-15 6.716-15 15v16c0 8.284 6.716 15 15 15h273c8.284 0 15-6.716 15-15v-16c0-8.284-6.715-15-15-15z"/><path d="m41.003 497.001c0 8.28 6.72 15 15 15h16c8.28 0 15-6.72 15-15v-52h-46z"/><path d="m217.003 497.001c0 8.28 6.72 15 15 15h16c8.28 0 15-6.72 15-15v-52h-46z"/><circle cx="152.003" cy="248.001" r="33"/><path d="m25.003 165.001v174h254v-174zm127 146c-34.738 0-63-28.262-63-63s28.262-63 63-63 63 28.262 63 63-28.261 63-63 63z"/><path d="m497.003 447.001h-23.16c-25.14 0-47.61-15.67-56.3-39.26l-12.61-34.22c-15.43-41.89-52.6-71.29-95.93-77.35v48.05c13.57 7.2 23.05 21.12 23.93 37.31 3.98 4.98 7.21 10.64 9.48 16.85l12.76 34.87c17.32 47.3 62.33 78.75 112.69 78.75h29.14c8.284 0 15-6.716 15-15v-35c0-8.284-6.715-15-15-15z"/></g></svg>