<?xml version="1.0" encoding="iso-8859-1"?>
<!-- Generator: Adobe Illustrator 16.0.0, SVG Export Plug-In . SVG Version: 6.00 Build 0)  -->
<!DOCTYPE svg PUBLIC "-//W3C//DTD SVG 1.1//EN" "http://www.w3.org/Graphics/SVG/1.1/DTD/svg11.dtd">
<svg version="1.1" id="Capa_1" xmlns="http://www.w3.org/2000/svg" xmlns:xlink="http://www.w3.org/1999/xlink" x="0px" y="0px"
	 width="525.839px" height="525.84px" viewBox="0 0 525.839 525.84" style="enable-background:new 0 0 525.839 525.84;"
	 xml:space="preserve">
<g>
	<g>
		<circle cx="393.817" cy="85.267" r="57.021"/>
		<path d="M288.38,511.802c6.006,4.456,12.996,6.599,19.938,6.599c10.222,0,20.32-4.667,26.89-13.502l115.381-155.267
			c6.895-9.285,8.521-21.468,4.274-32.235c-4.236-10.758-13.741-18.561-25.12-20.646l-66.899-12.249l29.653-69.796
			c0.411-0.459,0.898-0.813,1.281-1.301c8.09-10.433,6.177-25.456-4.256-33.536L163.781,5.009
			c-10.471-8.09-25.455-6.177-33.545,4.265c-8.09,10.442-6.178,25.456,4.255,33.536l144.48,111.9l-57.547,133.837l0.755,0.152
			c-0.392,1.271-0.87,2.515-1.119,3.863c-3.337,18.179,8.711,35.62,26.89,38.938l116.806,21.392l-83.289,112.072
			C270.451,479.806,273.549,500.776,288.38,511.802z"/>
		<path d="M220.516,506.715V372.84c0-10.557-8.568-19.125-19.125-19.125H87.769c-10.557,0-19.125,8.568-19.125,19.125v133.875
			c0,10.557,8.568,19.125,19.125,19.125h113.622C211.948,525.84,220.516,517.271,220.516,506.715z"/>
	</g>
</g>
<g>
</g>
<g>
</g>
<g>
</g>
<g>
</g>
<g>
</g>
<g>
</g>
<g>
</g>
<g>
</g>
<g>
</g>
<g>
</g>
<g>
</g>
<g>
</g>
<g>
</g>
<g>
</g>
<g>
</g>
</svg>
