<svg height="512" viewBox="0 0 512 512" width="512" xmlns="http://www.w3.org/2000/svg"><g id="filled_outline" data-name="filled outline"><path d="m272 56a24 24 0 0 1 24 24v24a0 0 0 0 1 0 0h-48a0 0 0 0 1 0 0v-24a24 24 0 0 1 24-24z" fill="#f6bb92" transform="matrix(-1 0 0 -1 544 160)"/><path d="m296 56v-8a24 24 0 0 0 -24-24 24 24 0 0 0 -24 24v8z" fill="#0276b4"/><path d="m272 114.443v57.557l-56 24v-64l-32 8v-40l47.966-14.99a30.839 30.839 0 0 1 28.934 5.744 30.837 30.837 0 0 1 11.1 23.689z" fill="#e82f3e"/><path d="m184 100-64 24v32l64-16z" fill="#f6bb92"/><path d="m264 220-24.6 43.044a34.968 34.968 0 0 1 -21.879 16.575 34.968 34.968 0 0 1 -31.238-7.374l-42.283-36.245 24-32 32 24 16-32z" fill="#598cdd"/><path d="m168 204-25-18-33 42 14.082 10.139a15 15 0 0 0 19.918-2.139z" fill="#eaeae8"/><path d="m384 236a25.106 25.106 0 0 1 35.676-3.6l4.324 3.6-40 52-24-20z" fill="#eaeae8"/><path d="m368 392h120v96h-120z" fill="#fbb540"/><path d="m24 312h128v40h-128z" fill="#fbb540" transform="matrix(-1 0 0 -1 176 664)"/><path d="m24 352h88v136h-88z" fill="#ea9d2d" transform="matrix(-1 0 0 -1 136 840)"/><path d="m80 256a7.976 7.976 0 0 1 -5.657-2.343 35.7 35.7 0 0 1 -4.443-44.922l3.449-5.173a8 8 0 1 1 13.312 8.876l-3.448 5.173a19.653 19.653 0 0 0 2.449 24.732 8 8 0 0 1 -5.662 13.657z" fill="#f7ba61"/><path d="m447.908 256a8 8 0 0 1 -6.649-12.439l3.448-5.172a19.654 19.654 0 0 0 -2.448-24.733 8 8 0 0 1 11.313-11.314 35.7 35.7 0 0 1 4.448 44.922l-3.448 5.173a7.993 7.993 0 0 1 -6.664 3.563z" fill="#f7ba61"/><g fill="#2cbff4"><path d="m288 312h-24a8 8 0 0 1 0-16h24a8 8 0 0 1 0 16z"/><path d="m304 280h-32a8 8 0 0 1 0-16h32a8 8 0 0 1 0 16z"/><path d="m328 312h-8a8 8 0 0 1 0-16h8a8 8 0 0 1 0 16z"/></g><path d="m272 172h36.034a44 44 0 0 1 33.114 15.026l42.852 48.974-24 32-48-48h-72a24 24 0 0 1 -24-24z" fill="#93b4eb"/><path d="m464 424a8 8 0 0 1 -8 8h-88v-16h88a8 8 0 0 1 8 8z" fill="#ea9d2d"/><path d="m464 456a8 8 0 0 1 -8 8h-88v-16h88a8 8 0 0 1 8 8z" fill="#ea9d2d"/><path d="m24 352h88v16h-88z" fill="#d18d28"/><path d="m105.326 234.492 14.081 10.139a22.944 22.944 0 0 0 24.27 1.629l37.4 32.059a42.968 42.968 0 0 0 65.27-11.306l22.295-39.013h40.044l45.6 45.6.02.02.034.035c.064.064.135.12.2.182.111.1.217.209.334.307l24 20a8 8 0 0 0 5.126 1.856 8.136 8.136 0 0 0 .88-.048 8 8 0 0 0 5.461-3.075l40-52a8 8 0 0 0 -1.219-11.023l-4.324-3.6a33.139 33.139 0 0 0 -40.184-1.7l-37.446-42.8a52 52 0 0 0 -39.134-17.754h-28.034v-49.557c0-1.148-.064-2.286-.163-3.417a32.055 32.055 0 0 0 24.163-31.026v-32a32 32 0 0 0 -64 0v27.646a38.868 38.868 0 0 0 -10.42 1.729l-112.389 39.134a8 8 0 0 0 -5.191 7.491v32a8 8 0 0 0 9.94 7.761l86.06-21.515v51.866l-10.869 21.737-49.457-36.341a8 8 0 0 0 -10.965 1.55l-33 42a8 8 0 0 0 1.617 11.434zm296.559.173a16.942 16.942 0 0 1 11.009 2.652l-30.163 39.212-11.771-9.809 19.358-25.811a16.972 16.972 0 0 1 11.567-6.244zm-66.758-42.371 38.582 44.094-14.575 19.433-41.477-41.478a8 8 0 0 0 -5.657-2.343h-72a16.029 16.029 0 0 1 -15.22-11.059l48.862-20.941h34.392a36 36 0 0 1 27.093 12.294zm-47.127-112.294a16.025 16.025 0 0 1 -12.831 15.682 38.719 38.719 0 0 0 -19.169-17.116v-14.566h32zm-16-48a16.019 16.019 0 0 1 16 16h-32a16.019 16.019 0 0 1 16-16zm-144 97.544 48-18v22.21l-48 12zm64 .21v-23.873l42.352-13.235a22.836 22.836 0 0 1 29.648 21.797v52.282l-40 17.143v-51.868a8 8 0 0 0 -9.94-7.761zm9.838 106.032a8 8 0 0 0 5.317-4.208l7.829-15.658a31.947 31.947 0 0 0 25.016 12.08h10.214l-17.757 31.075a26.967 26.967 0 0 1 -40.965 7.1l-36.592-31.375 14.7-19.6 25.6 19.2a8 8 0 0 0 6.638 1.386zm-57.287-38.811 12.155 8.751-18.852 25.135a6.992 6.992 0 0 1 -9.1.786l-7.311-5.265z"/><path d="m488 384h-120a8 8 0 0 0 -8 8v96a8 8 0 0 0 8 8h120a8 8 0 0 0 8-8v-96a8 8 0 0 0 -8-8zm-8 96h-104v-16h80a8 8 0 0 0 0-16h-80v-16h80a8 8 0 0 0 0-16h-80v-16h104z"/><path d="m24 496h88a8 8 0 0 0 8-8v-128h32a8 8 0 0 0 8-8v-40a8 8 0 0 0 -8-8h-128a8 8 0 0 0 -8 8v176a8 8 0 0 0 8 8zm80-16h-72v-120h72zm-72-160h112v24h-112z"/><path d="m80 256a8 8 0 0 0 5.657-13.657 19.653 19.653 0 0 1 -2.449-24.732l3.448-5.173a8 8 0 1 0 -13.312-8.876l-3.444 5.173a35.7 35.7 0 0 0 4.448 44.922 7.976 7.976 0 0 0 5.652 2.343z"/><path d="m441.259 243.562a8 8 0 1 0 13.313 8.876l3.448-5.173a35.7 35.7 0 0 0 -4.448-44.922 8 8 0 0 0 -11.313 11.314 19.654 19.654 0 0 1 2.448 24.733z"/><path d="m256 304a8 8 0 0 0 8 8h24a8 8 0 0 0 0-16h-24a8 8 0 0 0 -8 8z"/><path d="m304 264h-32a8 8 0 0 0 0 16h32a8 8 0 0 0 0-16z"/><path d="m320 312h8a8 8 0 0 0 0-16h-8a8 8 0 0 0 0 16z"/></g></svg>