<svg id="Capa_1" enable-background="new 0 0 512.138 512.138" height="512" viewBox="0 0 512.138 512.138" width="512" xmlns="http://www.w3.org/2000/svg"><g><path d="m173.249 152.875c4.094-9.375 6.38-19.72 6.38-30.603 0-42.277-34.273-76.55-76.55-76.55s-76.55 34.273-76.55 76.55c0 10.884 2.286 21.229 6.38 30.603-15.765 17.042-25.405 39.835-25.405 64.882 0 52.785 42.79 95.575 95.575 95.575s95.575-42.791 95.575-95.575c.001-25.047-9.639-47.84-25.405-64.882z" fill="#ade194"/><path d="m118.08 312.167c-4.88.77-9.9 1.17-15 1.17-52.79 0-95.58-42.8-95.58-95.58 0-25.05 9.64-47.84 25.41-64.88-4.09-9.38-6.38-19.72-6.38-30.61 0-42.27 34.27-76.55 76.55-76.55 5.13 0 10.15.51 15 1.48-35.1 6.96-61.55 37.93-61.55 75.07 0 10.89 2.29 21.23 6.38 30.61-15.77 17.04-25.41 39.83-25.41 64.88 0 47.68 34.92 87.21 80.58 94.41z" fill="#97da7b"/><path d="m313.345 83.952v191.15h38.23v-76.46c0-21.114 17.116-38.23 38.23-38.23 21.114 0 38.23 17.116 38.23 38.23v76.46h38.23v-191.15z" fill="#f07281"/><path d="m466.27 83.947v20h-107.92c-8.284 0-15 6.716-15 15v156.15h-30v-191.15z" fill="#eb5569"/><path d="m389.805 7.491c12.374 0 24.379 4.211 34.041 11.941l80.649 64.519h-229.38l80.649-64.519c9.662-7.729 21.668-11.941 34.041-11.941z" fill="#8ac9fe"/><path d="m414.81 13.577c-3.18 1.63-6.21 3.59-9.05 5.86l-80.65 64.51h-50l80.65-64.51c9.67-7.73 21.67-11.95 34.05-11.95 8.75 0 17.32 2.11 25 6.09z" fill="#60b7ff"/><path d="m489.496 275.102h-199.381c-8.284 0-15 6.716-15 15v199.381c0 8.284 6.716 15 15 15h199.381c8.284 0 15-6.716 15-15v-199.381c0-8.284-6.716-15-15-15zm-99.691 170.392c-31.653 0-57.312-25.66-57.312-57.312 0-31.653 25.659-57.312 57.312-57.312s57.312 25.66 57.312 57.312-25.659 57.312-57.312 57.312z" fill="#8ac9fe"/><path d="m325.11 489.487v-199.39c0-8.28 6.72-15 15-15h-50c-8.28 0-15 6.72-15 15v199.39c0 8.28 6.72 15 15 15h50c-8.28 0-15-6.72-15-15z" fill="#60b7ff"/><path d="m122.195 504.483h-38.23v-401.416c0-10.557 8.558-19.115 19.115-19.115 10.557 0 19.115 8.558 19.115 19.115z" fill="#c68d7a"/><path d="m113.08 86.777c-5.47 3.35-9.12 9.4-9.12 16.29v401.42h-20v-401.42c0-10.56 8.56-19.12 19.12-19.12 3.67 0 7.09 1.03 10 2.83z" fill="#bc7c63"/><path d="m351.575 129.682c-4.142 0-7.5-3.358-7.5-7.5 0-4.142 3.358-7.5 7.5-7.5 4.142 0 7.5 3.358 7.5 7.5 0 4.142-3.358 7.5-7.5 7.5z"/><path d="m313.345 320.832c-4.142 0-7.5-3.358-7.5-7.5 0-4.142 3.358-7.5 7.5-7.5 4.142 0 7.5 3.358 7.5 7.5 0 4.142-3.358 7.5-7.5 7.5z"/><path d="m466.266 320.832c-4.142 0-7.5-3.358-7.5-7.5 0-4.142 3.358-7.5 7.5-7.5 4.142 0 7.5 3.358 7.5 7.5 0 4.142-3.358 7.5-7.5 7.5z"/><path d="m313.345 473.687c-4.142 0-7.5-3.358-7.5-7.5 0-4.142 3.358-7.5 7.5-7.5 4.142 0 7.5 3.358 7.5 7.5 0 4.142-3.358 7.5-7.5 7.5z"/><path d="m466.266 473.687c-4.142 0-7.5-3.358-7.5-7.5 0-4.142 3.358-7.5 7.5-7.5 4.142 0 7.5 3.358 7.5 7.5 0 4.142-3.358 7.5-7.5 7.5z"/><path d="m428.035 129.682c-4.142 0-7.5-3.358-7.5-7.5 0-4.142 3.358-7.5 7.5-7.5 4.142 0 7.5 3.358 7.5 7.5 0 4.142-3.357 7.5-7.5 7.5z"/><path d="m313.345 275.102h-31.205c-4.452 0-8.673 1.977-11.523 5.397l-159.667 191.6c-17.099 20.519-42.43 32.383-69.14 32.383h-34.306v-38.23l43.318-.05c8.89-.01 17.317-3.963 23.009-10.791l155.183-186.166c17.099-20.513 42.426-32.374 69.132-32.374h15.199z" fill="#fee97d"/><g><path d="m389.81 323.367c-34.379 0-62.807 26.862-64.718 61.146-1.658 29.372 17.999 57.434 46.247 65.805 3.97 1.177 8.145-1.088 9.321-5.06 1.178-3.971-1.088-8.145-5.06-9.322-21.594-6.4-36.789-28.249-35.532-50.582 1.469-26.348 23.317-46.988 49.741-46.988 26.418 0 48.263 20.64 49.732 46.987 1.233 22.223-14.035 44.213-35.522 50.582-3.972 1.177-6.237 5.351-5.06 9.322 2.408 4.442 5.515 6.129 9.321 5.06 28.165-8.347 47.871-36.476 46.237-65.798-1.911-34.291-30.334-61.152-64.707-61.152z"/><path d="m489.496 267.602h-15.726v-85.575c0-4.142-3.357-7.5-7.5-7.5s-7.5 3.358-7.5 7.5v85.57h-23.23v-68.96c0-24.945-20.785-45.73-45.73-45.73-25.216 0-45.729 20.514-45.729 45.73v68.96h-23.23v-176.146h137.92v57.886c0 4.142 3.357 7.5 7.5 7.5s7.5-3.358 7.5-7.5v-57.886h30.727c7.69-.131 10.171-10.131 4.686-13.356l-80.649-64.519c-22.375-17.9-55.079-17.899-77.454 0l-80.651 64.519c-7.763 7.225-3.763 12.892 4.686 13.356h30.734v137.92h-7.704c-29.017 0-56.313 12.783-74.892 35.072l-93.564 112.244v-59.347c43.023-11.423 74.075-49.375 76.33-94.347.208-4.137-2.978-7.659-7.114-7.866-4.157-.213-7.658 2.979-7.866 7.115-1.86 37.065-26.611 68.547-61.35 79.487v-35.357l34.889-23.253c3.447-2.297 4.379-6.954 2.082-10.4-2.298-3.447-6.954-4.377-10.4-2.081l-26.57 17.709v-103.943l16.923-16.924c2.929-2.929 2.929-7.678-.001-10.606-2.928-2.93-7.677-2.929-10.606 0l-6.315 6.316v-20.122c-1.514-16.226-10.384-25.099-26.61-26.62-14.679 0-26.62 11.942-26.62 26.62v20.113l-6.307-6.306c-2.93-2.929-7.678-2.929-10.607 0s-2.929 7.678 0 10.606l16.914 16.914v103.952l-26.57-17.709c-3.446-2.298-8.103-1.366-10.4 2.081s-1.365 8.104 2.082 10.4l34.889 23.253v35.354c-36.108-11.443-61.463-45.378-61.463-83.969 0-22.239 8.315-43.471 23.414-59.786 2.023-2.186 2.562-5.361 1.371-8.092-19.487-44.699 14.336-96.663 63.295-96.663s82.782 51.964 63.295 96.663c-1.19 2.731-.652 5.908 1.373 8.094 9.001 9.717 15.78 21.519 19.605 34.13 1.201 3.964 5.391 6.2 9.354 5 3.964-1.202 6.203-5.39 5-9.354-4.018-13.247-10.815-25.729-19.773-36.367 19.864-53.695-21.557-113.166-78.854-113.166-57.278 0-98.731 59.43-78.854 113.165-15.657 18.568-24.226 41.954-24.226 66.376 0 46.755 31.808 87.672 76.46 99.587v123.201c-7.562 10.084-12.127 18.142-25.646 18.158l-43.318.05c-4.139.005-7.491 3.361-7.491 7.5v38.23c0 4.142 3.357 7.5 7.5 7.5h34.307c12.045 0 23.79-2.209 34.741-6.38.54 3.611 3.646 6.384 7.408 6.384h38.23c4.143 0 7.5-3.358 7.5-7.5v-43.16l137.925-165.51v193.666c0 12.407 10.094 22.5 22.5 22.5h199.381c12.406 0 22.5-10.093 22.5-22.5v-199.381c-.001-12.407-10.095-22.5-22.501-22.5zm-129.047-242.313c16.962-13.568 41.75-13.568 58.712 0l63.954 51.163h-186.619zm29.361 142.618c16.761 0 30.73 13.969 30.73 30.73v68.965h-61.46v-68.965c0-16.944 13.785-30.73 30.73-30.73zm-298.35-64.84c0-6.407 5.213-11.62 11.62-11.62 7.082.662 10.952 4.535 11.61 11.62v291.615l-23.23 27.868zm2.333 393.92c7.685-4.849 14.73-10.797 20.898-17.742v17.742zm171.062-221.289s-126.222 149.631-142.661 168.289c-.307.134-19.12 26.333-42.116 43.601-11.655 6.104-24.739 9.395-38.268 9.395h-26.806v-23.239l35.827-.041c11.144-.013 21.627-4.929 28.761-13.489l155.184-186.166c15.721-18.86 38.817-29.676 63.37-29.676h7.7v23.23h-23.705c-6.699 0-12.998 2.951-17.286 8.096zm232.141 213.785c0 4.136-3.364 7.5-7.5 7.5h-199.381c-4.136 0-7.5-3.364-7.5-7.5v-199.381c0-4.136 3.364-7.5 7.5-7.5h199.381c4.136 0 7.5 3.364 7.5 7.5z"/></g></g></svg>