<?xml version="1.0"?>
<svg xmlns="http://www.w3.org/2000/svg" id="filledoutline" viewBox="0 0 64 64" width="512" height="512"><path d="M59,44V58H5V44l.59-.59a2.029,2.029,0,0,0,2.82,0L8.83,43h6.34l.42.41a2.029,2.029,0,0,0,2.82,0l.42-.41h6.34l.42.41a2.029,2.029,0,0,0,2.82,0l.42-.41h6.34l.42.41a2.029,2.029,0,0,0,2.82,0l.42-.41H43.3a5.473,5.473,0,0,1,1.372.174l.915.236a2.029,2.029,0,0,0,2.82,0l.42-.41h6.34l.42.41a2.029,2.029,0,0,0,2.82,0Z" style="fill:#3cb3f0"/><path d="M61,30.62v2.76a1,1,0,0,1-1.45.9L57,33l-.76,2.29a1.012,1.012,0,0,1-.98.69l-.12-.01a1,1,0,0,1-.97-1.01l.06-3.26L35.66,23.68a2.005,2.005,0,0,0-2.52.89L28,34v6l5-2,3.35,5.87L37,45H34.36a1.537,1.537,0,0,1-.19-.17l-.76-.76a2.039,2.039,0,0,0-2.82,0l-.76.76a1.537,1.537,0,0,1-.19.17H24.36a1.537,1.537,0,0,1-.19-.17l-.76-.76a2.039,2.039,0,0,0-2.82,0l-.76.76a1.537,1.537,0,0,1-.19.17H14.36a1.537,1.537,0,0,1-.19-.17l-.76-.76a2.039,2.039,0,0,0-2.82,0l-.76.76a1.537,1.537,0,0,1-.19.17H5V41L21,31l8.51-12.76A5.022,5.022,0,0,1,33.7,16a5.1,5.1,0,0,1,2.44.63L53,26l7.45,3.72A1,1,0,0,1,61,30.62Z" style="fill:#fec093"/><path d="M35.983,32.817h8a4,4,0,0,1,4,4v2a4,4,0,0,1-4,4h-9a3,3,0,0,1-3-3v-3a4,4,0,0,1,4-4Z" transform="translate(-13.334 24.177) rotate(-29.055)" style="fill:#fec093"/><path d="M42.308,30.146h1a4,4,0,0,1,4,4v2a4,4,0,0,1-4,4h-1a0,0,0,0,1,0,0v-10A0,0,0,0,1,42.308,30.146Z" transform="translate(-11.43 26.184) rotate(-29.055)" style="fill:#ea4747"/><path d="M44.079,38.983l-.485-.874a1.989,1.989,0,0,0-1.723-1.02l-.249-.5a1.992,1.992,0,0,0,.029-1.979l-.485-.874a2,2,0,1,0-3.5,1.943l.486.874a1.99,1.99,0,0,0,1.722,1.02l.249.5a1.993,1.993,0,0,0-.029,1.978l.486.875a2,2,0,1,0,3.5-1.943Z" style="fill:#0b9ce6"/><path d="M10,24c1.105,0,6-2,6-2s-4.895-2-6-2a2,2,0,0,0,0,4Z" style="fill:#3cb3f0"/><path d="M12.343,16.172C13.124,16.953,18,19,18,19s-2.047-4.876-2.828-5.657a2,2,0,0,0-2.829,2.829Z" style="fill:#3cb3f0"/><path d="M61.057,35.083A1.993,1.993,0,0,0,62,33.38V30.62a1.993,1.993,0,0,0-1.1-1.8l-7.411-3.7L36.619,15.753A6.092,6.092,0,0,0,33.7,15a6.012,6.012,0,0,0-5.022,2.686L20.29,30.262,4.465,39.933,5.508,41.64l16.013-9.786a1.009,1.009,0,0,0,.311-.3l8.511-12.761A4.019,4.019,0,0,1,33.7,17a4.1,4.1,0,0,1,1.954.5l16.9,9.391L60,30.62l0,2.767-2.55-1.281a1,1,0,0,0-1.4.58l-.7,2.3-.179-.005.06-3.26a1,1,0,0,0-.6-.937L36.04,22.755a3,3,0,0,0-3.778,1.337l-5.14,9.429A1,1,0,0,0,27,34v5.958a1,1,0,0,0,1.323.946l2.829-.965a5,5,0,0,0,.495,1.374L33.1,43.937a3.971,3.971,0,0,0,2.4,1.9,3.969,3.969,0,0,0,3.041-.35l7.867-4.37a5,5,0,0,0,1.943-6.8l-.971-1.748a5.006,5.006,0,0,0-6.8-1.943L33.59,34.516a4.962,4.962,0,0,0-2.38,3c-.03.1-.035.209-.057.313L29,38.561V34.255l5.016-9.2a1.006,1.006,0,0,1,1.248-.455l17.954,7.755-.048,2.588a1.972,1.972,0,0,0,.557,1.414,1.92,1.92,0,0,0,1.324.611l.186.014A2,2,0,0,0,57.189,35.6l.4-1.191,1.522.765A2,2,0,0,0,61.057,35.083Zm-22.6-.648a1,1,0,0,1,.959-.725,1,1,0,0,1,.877.514l.485.874a1,1,0,0,1-.387,1.359h0a1,1,0,0,1-1.359-.39l-.485-.874A.993.993,0,0,1,38.456,34.435Zm2.428,4.371a.992.992,0,0,1,.475-.6h0a.994.994,0,0,1,.484-.127,1.039,1.039,0,0,1,.276.039.992.992,0,0,1,.6.476l.485.876a1,1,0,1,1-1.748.969l-.486-.873A.993.993,0,0,1,40.884,38.806ZM43.005,32a3.005,3.005,0,0,1,2.629,1.542l.97,1.749a3,3,0,0,1-1.165,4.079l-.159.088a2.98,2.98,0,0,0-.327-.962l-.485-.875a2.974,2.974,0,0,0-1.653-1.371,2.979,2.979,0,0,0-.29-2.125l-.485-.875a2.968,2.968,0,0,0-.647-.785l.161-.089A2.985,2.985,0,0,1,43.005,32Zm-9.872,6.06a2.977,2.977,0,0,1,1.428-1.8l1.907-1.06a2.98,2.98,0,0,0,.327.962l.485.875A2.968,2.968,0,0,0,38.934,38.4a2.972,2.972,0,0,0,.289,2.138l.486.873a2.961,2.961,0,0,0,.644.786l-2.781,1.545a2,2,0,0,1-2.719-.776L33.4,40.342A2.975,2.975,0,0,1,33.133,38.062Z"/><path d="M7,22a3,3,0,0,0,3,3c1.207,0,5.187-1.588,6.378-2.074a1,1,0,0,0,0-1.852C15.187,20.588,11.207,19,10,19A3,3,0,0,0,7,22Zm3,1a1,1,0,0,1,0-2,18.071,18.071,0,0,1,3.241,1A18.071,18.071,0,0,1,10,23Z"/><path d="M17.612,19.922a1,1,0,0,0,1.31-1.31c-.5-1.185-2.19-5.123-3.043-5.977a3,3,0,0,0-4.244,4.244h0C12.489,17.732,16.427,19.424,17.612,19.922ZM13.05,14.051a1,1,0,0,1,1.414,0,18.246,18.246,0,0,1,1.584,3,18.292,18.292,0,0,1-3-1.584A1,1,0,0,1,13.05,14.051Z"/><path d="M59.758,25.136l1.98-.272A23.009,23.009,0,0,0,24.115,10.417L25.4,11.946a21.01,21.01,0,0,1,34.354,13.19Z"/><path d="M22.26,15.244q.321-.422.664-.825l.646-.763-1.525-1.293-.647.763c-.25.295-.493.6-.728.9l-.607.8,1.589,1.214Z"/><path d="M49.828,44.829l.758-.758a2.045,2.045,0,0,1,2.828,0l.758.756a4,4,0,0,0,5.656,0l-1.414-1.414a2.045,2.045,0,0,1-2.828,0l-.758-.756a4.1,4.1,0,0,0-5.656,0l-.758.758a2.047,2.047,0,0,1-2.828,0l-1.414,1.414A4.1,4.1,0,0,0,49.828,44.829Z"/><path d="M9.828,44.829l.758-.758a2.045,2.045,0,0,1,2.828,0l.758.756a4.1,4.1,0,0,0,5.656,0l.758-.758a2.045,2.045,0,0,1,2.828,0l.758.756a4,4,0,0,0,5.656,0l.758-.757-1.414-1.416-.758.758a2.045,2.045,0,0,1-2.828,0l-.758-.756a4.1,4.1,0,0,0-5.656,0l-.758.758a2.045,2.045,0,0,1-2.828,0l-.758-.756a4.1,4.1,0,0,0-5.656,0l-.758.758a2.047,2.047,0,0,1-2.828,0L4.172,44.828A4.1,4.1,0,0,0,9.828,44.829Z"/><path d="M58.415,48.929a2.005,2.005,0,0,1-2.829,0l-.757-.757a4,4,0,0,0-5.657,0l-.757.757a2.005,2.005,0,0,1-2.829,0l-.757-.757a4,4,0,0,0-5.657,0l-.757.757a2.005,2.005,0,0,1-2.829,0l-.757-.757a4,4,0,0,0-5.657,0l-.757.757a2.005,2.005,0,0,1-2.829,0l-.757-.757a4,4,0,0,0-5.657,0l-.757.757a2.005,2.005,0,0,1-2.829,0l-.757-.757a4.1,4.1,0,0,0-5.657,0l-.757.757a2.005,2.005,0,0,1-2.829,0L4.172,50.343a4,4,0,0,0,5.657,0l.757-.757a2,2,0,0,1,2.829,0l.757.757a4,4,0,0,0,5.657,0l.757-.757a2,2,0,0,1,2.829,0l.757.757a4,4,0,0,0,5.657,0l.757-.757a2,2,0,0,1,2.829,0l.757.757a4,4,0,0,0,5.657,0l.757-.757a2,2,0,0,1,2.829,0l.757.757a4,4,0,0,0,5.657,0l.757-.757a2.048,2.048,0,0,1,2.829,0l.757.757a4,4,0,0,0,5.657,0Z"/><path d="M58.414,53.947a2.045,2.045,0,0,1-2.828,0l-.758-.756a4.1,4.1,0,0,0-5.656,0l-.758.758a2.045,2.045,0,0,1-2.828,0l-.758-.756a4.1,4.1,0,0,0-5.656,0l-.758.758a2.045,2.045,0,0,1-2.828,0l-.758-.756a4.1,4.1,0,0,0-5.656,0l-.758.758a2.045,2.045,0,0,1-2.828,0l-.758-.756a4.1,4.1,0,0,0-5.656,0l-.758.758a2.045,2.045,0,0,1-2.828,0l-.758-.756a4.1,4.1,0,0,0-5.656,0l-.758.758a2.047,2.047,0,0,1-2.828,0L4.172,55.361a4.1,4.1,0,0,0,5.656,0l.758-.758a2.047,2.047,0,0,1,2.828,0l.758.756a4.1,4.1,0,0,0,5.656,0l.758-.758a2.047,2.047,0,0,1,2.828,0l.758.756a4.1,4.1,0,0,0,5.656,0l.758-.758a2.047,2.047,0,0,1,2.828,0l.758.756a4.1,4.1,0,0,0,5.656,0l.758-.758a2.047,2.047,0,0,1,2.828,0l.758.756a4.1,4.1,0,0,0,5.656,0l.758-.758a2.047,2.047,0,0,1,2.828,0l.758.756a4,4,0,0,0,5.656,0Z"/></svg>
